<svg width="468" height="539" viewBox="0 0 468 539" fill="none" xmlns="http://www.w3.org/2000/svg">
<g clip-path="url(#clip0_5_16)">
<rect width="467.5" height="539" fill="url(#paint0_linear_5_16)"/>
<g clip-path="url(#clip1_5_16)">
<path d="M-20.8664 516.179C-39.4369 501.425 -46.7382 483.077 -42.7705 461.135C-38.8027 439.193 -32.4392 417.7 -23.6798 396.657C-14.9205 375.615 0.348193 361.579 22.1262 354.55C43.9043 347.521 64.5096 347.007 83.9423 353.01C103.375 359.012 123.573 357.314 144.537 347.916C165.501 338.519 181.176 343.444 191.563 362.692C201.95 381.941 208.897 399.926 212.405 416.65C215.914 433.373 227.236 450.084 246.374 466.782C265.511 483.481 268.445 500.681 255.175 518.385C241.906 536.088 231.042 555.232 222.583 575.815C214.124 596.398 199.208 609.09 177.836 613.891C156.463 618.692 135.011 623.113 113.479 627.154C91.9475 631.195 73.3547 625.413 57.701 609.809C42.0473 594.206 29.6819 578.388 20.6048 562.357C11.5278 546.326 -2.296 530.933 -20.8664 516.179Z" fill="url(#paint1_linear_5_16)"/>
</g>
<g clip-path="url(#clip2_5_16)">
<path d="M355.665 -144.558C378.13 -127.477 397.686 -117.235 414.333 -113.831C430.979 -110.427 444.811 -102.158 455.826 -89.0234C466.842 -75.8892 482.373 -63.2195 502.419 -51.0145C522.466 -38.8094 534.756 -21.279 539.289 1.57684C543.822 24.4326 534.873 42.2996 512.443 55.1777C490.012 68.0559 477.662 89.8458 475.391 120.547C473.12 151.249 458.338 161.099 431.045 150.096C403.752 139.094 378.378 140.197 354.923 153.405C331.468 166.613 316.013 159.008 308.558 130.591C301.102 102.173 290.541 82.1066 276.872 70.3922C263.204 58.6778 249.269 43.9392 235.066 26.1764C220.864 8.41372 216.131 -11.5504 220.868 -33.7158C225.605 -55.8813 231.76 -79.3514 239.332 -104.126C246.904 -128.901 262.57 -146.104 286.329 -155.734C310.088 -165.365 333.2 -161.639 355.665 -144.558Z" fill="url(#paint2_linear_5_16)"/>
</g>
<g clip-path="url(#clip3_5_16)">
<path d="M163.151 157.172C164.287 165.716 163.651 174.35 161.243 183.074C158.836 191.797 153.318 197.764 144.689 200.974C136.06 204.184 128.759 210.436 122.786 219.73C116.813 229.025 109.093 231.798 99.6254 228.052C90.1581 224.305 79.4091 222.954 67.3783 223.997C55.3476 225.041 45.234 221.275 37.0375 212.7C28.841 204.124 22.9924 194.022 19.4918 182.393C15.9911 170.765 15.9015 159.183 19.2228 147.65C22.5441 136.117 28.6966 126.774 37.6801 119.623C46.6636 112.471 55.0008 105.3 62.6917 98.1098C70.3826 90.9197 79.5491 86.6042 90.191 85.1632C100.833 83.7223 110.08 86.8868 117.933 94.6567C125.785 102.427 135.297 107.059 146.469 108.553C157.641 110.048 162.931 116.389 162.338 127.576C161.745 138.763 162.016 148.628 163.151 157.172Z" fill="url(#paint3_linear_5_16)"/>
</g>
<g clip-path="url(#clip4_5_16)">
<path d="M404.077 375.196C412.36 381.689 418.829 389.171 423.487 397.64C428.145 406.11 432.316 414.744 436.001 423.543C439.686 432.342 443.553 442.663 447.601 454.507C451.649 466.35 449.867 476.853 442.254 486.014C434.64 495.175 426.112 503.354 416.667 510.551C407.222 517.747 396.467 523.782 384.402 528.655C372.337 533.529 362.177 529.922 353.919 517.835C345.662 505.747 337.763 496.999 330.223 491.588C322.682 486.178 313.303 480.201 302.087 473.659C290.87 467.116 286.278 457.853 288.31 445.87C290.341 433.887 295.498 423.994 303.779 416.191C312.06 408.387 316.333 396.563 316.6 380.717C316.867 364.871 323.577 354.952 336.732 350.961C349.887 346.969 362.33 348.387 374.059 355.214C385.789 362.042 395.795 368.702 404.077 375.196Z" fill="url(#paint4_linear_5_16)"/>
</g>
</g>
<defs>
<linearGradient id="paint0_linear_5_16" x1="48.5" y1="9.88241e-06" x2="409.5" y2="539" gradientUnits="userSpaceOnUse">
<stop stop-color="#1411A0"/>
<stop offset="1" stop-color="#A815CD"/>
</linearGradient>
<linearGradient id="paint1_linear_5_16" x1="184.429" y1="613.834" x2="29.271" y2="348.132" gradientUnits="userSpaceOnUse">
<stop stop-color="#CF00AE"/>
<stop offset="1" stop-color="#FF9F47"/>
</linearGradient>
<linearGradient id="paint2_linear_5_16" x1="235.108" y1="42.7697" x2="523.3" y2="-50.0382" gradientUnits="userSpaceOnUse">
<stop stop-color="#FFAA47"/>
<stop offset="1" stop-color="#CF00AE"/>
</linearGradient>
<linearGradient id="paint3_linear_5_16" x1="73.9099" y1="89.0694" x2="111.437" y2="229.124" gradientUnits="userSpaceOnUse">
<stop stop-color="#FF8947"/>
<stop offset="1" stop-color="#CF00A1"/>
</linearGradient>
<linearGradient id="paint4_linear_5_16" x1="294.662" y1="421.106" x2="451.602" y2="463.158" gradientUnits="userSpaceOnUse">
<stop stop-color="#FFAA47"/>
<stop offset="1" stop-color="#EF1C8E"/>
</linearGradient>
<clipPath id="clip0_5_16">
<rect width="467.5" height="539" fill="white"/>
</clipPath>
<clipPath id="clip1_5_16">
<rect width="353.683" height="353.683" fill="white" transform="translate(355.773 539.421) rotate(149.717)"/>
</clipPath>
<clipPath id="clip2_5_16">
<rect width="387.545" height="387.545" fill="white" transform="translate(251.616 243.504) rotate(-107.85)"/>
</clipPath>
<clipPath id="clip3_5_16">
<rect width="178.364" height="178.364" fill="white" transform="translate(-7 97.1639) rotate(-15)"/>
</clipPath>
<clipPath id="clip4_5_16">
<rect width="205" height="205" fill="white" transform="translate(246 513.015) rotate(-75)"/>
</clipPath>
</defs>
</svg>