<svg width="296" height="34" viewBox="0 0 296 34" fill="none" xmlns="http://www.w3.org/2000/svg">
<rect width="297" height="34" fill="url(#paint0_linear_17_11)"/>
<path d="M116.49 20.306C116.556 20.306 116.613 20.3317 116.661 20.383L117.123 20.889C116.8 21.2703 116.406 21.5655 115.94 21.7745C115.478 21.9835 114.921 22.088 114.268 22.088C113.696 22.088 113.177 21.989 112.712 21.791C112.25 21.593 111.854 21.3162 111.524 20.9605C111.197 20.6048 110.944 20.1795 110.765 19.6845C110.585 19.1895 110.495 18.645 110.495 18.051C110.495 17.457 110.589 16.9125 110.776 16.4175C110.966 15.9225 111.232 15.4972 111.573 15.1415C111.914 14.7858 112.321 14.509 112.794 14.311C113.271 14.113 113.797 14.014 114.373 14.014C114.934 14.014 115.432 14.1057 115.869 14.289C116.305 14.4723 116.684 14.7162 117.007 15.0205L116.622 15.565C116.596 15.6053 116.563 15.6383 116.523 15.664C116.486 15.6897 116.437 15.7025 116.375 15.7025C116.305 15.7025 116.222 15.6677 116.127 15.598C116.035 15.5283 115.913 15.4513 115.759 15.367C115.608 15.279 115.421 15.2002 115.198 15.1305C114.974 15.0608 114.695 15.026 114.362 15.026C113.969 15.026 113.61 15.0957 113.284 15.235C112.957 15.3707 112.675 15.5687 112.437 15.829C112.202 16.0857 112.019 16.4028 111.887 16.7805C111.758 17.1545 111.694 17.578 111.694 18.051C111.694 18.5313 111.762 18.9585 111.898 19.3325C112.033 19.7065 112.22 20.0237 112.459 20.284C112.697 20.5443 112.977 20.7423 113.3 20.878C113.623 21.0137 113.971 21.0815 114.345 21.0815C114.572 21.0815 114.776 21.0687 114.956 21.043C115.139 21.0137 115.306 20.9715 115.456 20.9165C115.61 20.8615 115.755 20.7918 115.891 20.7075C116.026 20.6195 116.16 20.515 116.292 20.394C116.321 20.3683 116.353 20.3482 116.386 20.3335C116.419 20.3152 116.453 20.306 116.49 20.306ZM128.368 18.051C128.368 18.6413 128.273 19.184 128.082 19.679C127.895 20.1703 127.629 20.5957 127.285 20.955C126.94 21.3107 126.528 21.5875 126.047 21.7855C125.567 21.9835 125.033 22.0825 124.447 22.0825C123.864 22.0825 123.33 21.9835 122.846 21.7855C122.366 21.5875 121.953 21.3107 121.609 20.955C121.268 20.5957 121.002 20.1703 120.811 19.679C120.621 19.184 120.525 18.6413 120.525 18.051C120.525 17.4643 120.621 16.9235 120.811 16.4285C121.002 15.9335 121.268 15.5082 121.609 15.1525C121.953 14.7932 122.366 14.5145 122.846 14.3165C123.33 14.1148 123.864 14.014 124.447 14.014C125.033 14.014 125.567 14.1148 126.047 14.3165C126.528 14.5145 126.94 14.7932 127.285 15.1525C127.629 15.5082 127.895 15.9335 128.082 16.4285C128.273 16.9235 128.368 17.4643 128.368 18.051ZM127.169 18.051C127.169 17.5817 127.105 17.16 126.977 16.786C126.848 16.412 126.665 16.0948 126.427 15.8345C126.192 15.5742 125.906 15.3743 125.569 15.235C125.235 15.0957 124.861 15.026 124.447 15.026C124.032 15.026 123.657 15.0957 123.319 15.235C122.986 15.3743 122.7 15.5742 122.461 15.8345C122.223 16.0948 122.04 16.412 121.911 16.786C121.783 17.16 121.719 17.5817 121.719 18.051C121.719 18.524 121.783 18.9475 121.911 19.3215C122.04 19.6918 122.223 20.0072 122.461 20.2675C122.7 20.5278 122.986 20.7277 123.319 20.867C123.657 21.0027 124.032 21.0705 124.447 21.0705C124.861 21.0705 125.235 21.0027 125.569 20.867C125.906 20.7277 126.192 20.5278 126.427 20.2675C126.665 20.0072 126.848 19.6918 126.977 19.3215C127.105 18.9475 127.169 18.524 127.169 18.051ZM139.167 14.102V22H138.573C138.482 22 138.405 21.9835 138.342 21.9505C138.284 21.9175 138.223 21.8643 138.161 21.791L133.7 16.0215C133.708 16.1205 133.713 16.2177 133.717 16.313C133.724 16.4083 133.728 16.4982 133.728 16.5825V22H132.699V14.102H133.304C133.407 14.102 133.484 14.1148 133.535 14.1405C133.587 14.1625 133.644 14.2157 133.706 14.3L138.177 20.075C138.166 19.9687 138.157 19.866 138.15 19.767C138.146 19.6643 138.144 19.569 138.144 19.481V14.102H139.167ZM149.366 15.081H146.858V22H145.692V15.081H143.173V14.102H149.366V15.081ZM154.539 22H153.362V14.102H154.539V22ZM165.816 14.102V22H165.222C165.13 22 165.053 21.9835 164.991 21.9505C164.932 21.9175 164.872 21.8643 164.809 21.791L160.349 16.0215C160.356 16.1205 160.362 16.2177 160.365 16.313C160.373 16.4083 160.376 16.4982 160.376 16.5825V22H159.348V14.102H159.953C160.055 14.102 160.132 14.1148 160.184 14.1405C160.235 14.1625 160.292 14.2157 160.354 14.3L164.826 20.075C164.815 19.9687 164.806 19.866 164.798 19.767C164.795 19.6643 164.793 19.569 164.793 19.481V14.102H165.816ZM173.71 21.0595C174.025 21.0595 174.307 21.0063 174.557 20.9C174.806 20.7937 175.017 20.6452 175.189 20.4545C175.361 20.2602 175.493 20.031 175.585 19.767C175.677 19.4993 175.723 19.2042 175.723 18.8815V14.102H176.889V18.8815C176.889 19.3435 176.815 19.7707 176.669 20.163C176.522 20.5553 176.311 20.8945 176.036 21.1805C175.761 21.4665 175.427 21.6902 175.035 21.8515C174.643 22.0128 174.201 22.0935 173.71 22.0935C173.218 22.0935 172.776 22.0128 172.384 21.8515C171.992 21.6902 171.658 21.4665 171.383 21.1805C171.108 20.8945 170.897 20.5553 170.751 20.163C170.604 19.7707 170.531 19.3435 170.531 18.8815V14.102H171.702V18.876C171.702 19.1987 171.746 19.4938 171.834 19.7615C171.926 20.0292 172.058 20.2602 172.23 20.4545C172.402 20.6452 172.613 20.7937 172.863 20.9C173.112 21.0063 173.394 21.0595 173.71 21.0595ZM186.5 21.0485L186.495 22H181.6V14.102H186.495V15.0535H182.777V17.556H185.769V18.4745H182.777V21.0485H186.5Z" fill="white"/>
<defs>
<linearGradient id="paint0_linear_17_11" x1="-2.21282e-06" y1="17" x2="297" y2="17" gradientUnits="userSpaceOnUse">
<stop stop-color="#8B14E9"/>
<stop offset="1" stop-color="#ED0AD6"/>
</linearGradient>
</defs>
</svg>
