<svg width="39" height="29" viewBox="0 0 39 29" fill="none" xmlns="http://www.w3.org/2000/svg">
<path d="M36.624 23.392C36.888 23.176 37.164 22.972 37.452 22.78C37.74 22.588 38.076 22.492 38.46 22.492C38.82 22.492 39 22.816 39 23.464C39 24.784 38.388 25.864 37.164 26.704C35.988 27.568 34.572 28 32.916 28C31.26 28 30.048 27.412 29.28 26.236C28.656 25.3 28.344 24.028 28.344 22.42C28.344 21.724 28.476 20.824 28.74 19.72C30.108 14.008 30.804 10.048 30.828 7.84C30.804 6.784 30.36 6.064 29.496 5.68C29.16 5.536 28.764 5.464 28.308 5.464C26.172 5.464 24.156 6.724 22.26 9.244C23.22 12.604 23.7 16.42 23.7 20.692C23.7 22.276 23.328 23.56 22.584 24.544C21.816 25.552 20.58 26.056 18.876 26.056C17.604 26.056 16.644 25.696 15.996 24.976C15.324 24.256 14.988 23.308 14.988 22.132C14.988 19.708 15.624 16.72 16.896 13.168C17.328 11.968 17.832 10.78 18.408 9.604C17.376 6.82 16.008 5.428 14.304 5.428C12.384 5.428 10.704 6.724 9.264 9.316C8.208 11.212 7.344 13.792 6.672 17.056C8.424 17.296 9.816 18.04 10.848 19.288C11.856 20.536 12.36 21.868 12.36 23.284C12.36 24.7 11.916 25.876 11.028 26.812C10.14 27.748 8.928 28.216 7.392 28.216C5.856 28.24 4.704 27.7 3.936 26.596C3.168 25.516 2.784 24.04 2.784 22.168L2.784 21.448C2.784 21.184 2.796 20.896 2.82 20.584C2.412 20.776 2.064 20.968 1.776 21.16C1.488 21.376 1.2 21.484 0.911998 21.484C0.431999 21.484 0.191999 21.28 0.191999 20.872C0.191999 20.08 0.456 19.384 0.984002 18.784C1.488 18.184 2.172 17.728 3.036 17.416C3.348 14.608 3.768 12.4 4.296 10.792C5.28 7.696 6.576 5.344 8.184 3.736C10.104 1.864 12.468 0.915998 15.276 0.891998C17.604 0.891998 19.5 2.44 20.964 5.536C23.412 2.44 26.196 0.891999 29.316 0.891999C31.452 0.891999 33.156 1.42 34.428 2.476C35.676 3.556 36.3 5.248 36.3 7.552C36.3 8.104 36 9.556 35.4 11.908C34.776 14.284 34.284 16.228 33.924 17.74C33.564 19.276 33.384 20.488 33.384 21.376C33.384 23.32 33.876 24.292 34.86 24.292C35.196 24.292 35.508 24.196 35.796 24.004C36.06 23.812 36.336 23.608 36.624 23.392ZM19.164 23.032C19.788 23.032 20.1 22.06 20.1 20.116C20.1 18.172 19.932 16.216 19.596 14.248C18.684 16.624 18.228 18.928 18.228 21.16C18.228 21.64 18.312 22.072 18.48 22.456C18.624 22.84 18.852 23.032 19.164 23.032ZM6.996 25.084C7.5 25.084 7.752 24.688 7.752 23.896C7.752 22.456 7.188 21.412 6.06 20.764C5.964 21.676 5.916 22.288 5.916 22.6C5.916 23.272 6 23.812 6.168 24.22C6.36 24.796 6.636 25.084 6.996 25.084Z" fill="white"/>
</svg>
